<svg width="381" height="125" viewBox="0 0 381 125" fill="none" xmlns="http://www.w3.org/2000/svg">
<path d="M209.957 123.706C205.552 123.754 201.245 122.394 197.653 119.821C194.061 117.248 191.367 113.593 189.957 109.38C189.616 108.337 189.359 107.268 189.188 106.183C188.284 105.316 187.493 104.336 186.833 103.268L179.192 90.8969C178.567 90.9445 177.94 90.9684 177.311 90.9688C174.994 90.9652 172.689 90.6548 170.452 90.0455C167.309 94.0792 162.502 96.7733 156.808 97.5951C153.371 98.1305 149.901 98.4212 146.424 98.4651C146.045 98.4651 145.677 98.4517 145.307 98.4187C143.08 98.244 140.903 97.668 138.877 96.7181C134.899 98.3421 129.991 99.1622 124.249 99.1622C120.077 99.2067 116.002 97.8839 112.637 95.3923C105.181 99.7201 96.0919 101.911 89.6173 103.217C89.6173 103.217 89.3496 103.275 89.2962 103.284C83.0113 104.401 79.5609 105.005 78.108 105.245L77.3163 105.38C76.4367 105.519 75.5497 105.606 74.6599 105.64C74.2577 105.65 72.235 105.732 68.5214 105.886C67.7172 105.913 66.9875 105.931 66.2918 105.931C60.0597 105.931 55.6344 104.738 51.9565 102.063C51.0689 102.402 50.1637 102.693 49.2449 102.933C49.0554 102.983 48.8646 103.027 48.6791 103.069C48.6791 103.069 48.5067 103.108 48.4751 103.115C43.9941 104.032 37.5333 104.53 28.1381 104.681H26.5491C23.178 104.724 19.8166 104.308 16.5558 103.444C13.7135 102.68 11.0902 101.249 8.89953 99.2677C7.02004 97.5675 5.48449 95.5158 4.3777 93.2261C3.29398 91.0119 2.58816 88.6289 2.28999 86.1776C2.13258 84.8239 2.01827 83.5851 1.95048 82.5069C1.93726 82.3637 1.92749 82.2239 1.92347 82.0853C1.78157 78.8473 1.70976 75.7339 1.70976 72.83V71.862C1.69368 70.8888 1.68506 69.8663 1.68506 68.8687C1.68506 63.421 1.808 58.4784 2.04986 54.1767C2.33308 49.0218 2.76568 45.361 3.41256 42.6682C4.11621 39.5126 5.61105 36.5924 7.75376 34.1876C9.89647 31.7829 12.6152 29.9741 15.6492 28.9348C17.4838 28.2004 19.4098 27.7242 21.3729 27.5197C21.4212 27.5151 21.9106 27.4814 21.9106 27.4814C22.6396 27.4234 23.7875 27.3915 27.6067 27.3915H28.411C32.1153 27.4327 36.7877 27.5487 42.7417 27.7459C42.9186 27.7498 43.095 27.7548 43.2708 27.761C45.1988 22.188 49.4966 15.6336 58.882 10.9538C64.7385 7.9593 71.0002 5.85242 77.4651 4.70101C77.5105 4.69173 81.4797 4.08623 81.4797 4.08623C84.2872 3.65299 87.6968 3.32821 91.8981 3.09506C92.6805 3.05736 93.4297 3.03125 94.1518 3.03125C99.6428 3.03125 104.484 4.21151 108.541 6.53838C110.154 7.46647 111.579 8.69513 112.739 10.1592C115.545 13.668 117.609 17.7198 118.805 22.065C120.784 21.5771 122.814 21.3358 124.851 21.3464C126.172 21.3464 128.151 21.4502 132.813 22.2204C135.669 22.6686 138.392 23.751 140.784 25.3894L141.263 25.0797C144.917 22.7362 149.244 21.6979 153.551 22.131C157.859 22.5641 161.898 24.4436 165.022 27.4687C172.321 22.0383 180.859 18.461 188.979 17.5029C190.729 17.2963 192.49 17.191 194.252 17.1874C203.472 17.1874 216.147 20.2775 226.12 34.3095C233.952 28.9022 243.236 26.047 252.724 26.1283C253.838 26.1283 254.943 26.1649 256.029 26.2379C258.468 24.5517 261.356 23.65 264.312 23.6512C266.179 23.6495 268.028 24.0077 269.761 24.7068C272.65 25.8651 275.424 27.2953 278.048 28.9784C281.938 27.1323 287.101 26.2524 294.495 25.4231C299.592 24.8145 304.718 24.4854 309.851 24.4371C311.168 24.4371 312.453 24.4696 313.671 24.5328C318.535 24.7486 323.218 26.4524 327.099 29.418C328.714 28.5666 330.404 27.8704 332.148 27.3388C336.895 25.8194 341.838 25.0158 346.817 24.9539C346.941 24.9539 347.889 24.9626 349.676 24.9869C351.878 25.0136 354.379 25.1824 357.312 25.5031C362.615 26.0802 367.096 27.8265 370.628 30.6939C372.081 31.874 373.296 33.3252 374.207 34.9684C376.045 38.2334 377.194 41.847 377.582 45.582C377.693 46.746 377.743 47.7575 377.743 48.7139C377.741 50.9872 377.458 53.2515 376.902 55.4544C376.698 56.225 376.443 56.9807 376.138 57.7163C377.169 59.6807 377.96 61.7647 378.493 63.9221C378.975 66.4052 379.205 68.9315 379.18 71.4618V71.8997C379.18 75.9016 378.263 80.4103 376.295 86.0866C370.926 101.584 350.954 102.316 344.391 102.558C344.342 102.558 344.006 102.561 344.006 102.561C340.438 102.619 337.481 102.651 336.159 102.651H335.58C334.788 102.648 333.996 102.597 333.209 102.498C333.166 102.494 330.529 102.166 329.016 101.981C325.392 101.533 320.915 100.626 317.124 97.6745C314.823 100.606 310.938 103.459 304.392 104.413C300.665 104.954 299.557 105.087 298.914 105.15L297.018 105.338C296.36 105.407 295.699 105.441 295.037 105.439C292.097 105.44 289.194 104.763 286.551 103.462C283.908 102.16 281.594 100.268 279.784 97.928C272.752 103.453 263.863 106.447 254.257 106.447C246.935 106.412 239.708 104.772 233.075 101.64C232.931 105.838 231.561 109.899 229.136 113.313C226.951 116.48 224.07 119.093 220.718 120.949C217.412 122.752 213.715 123.7 209.957 123.706Z" fill="#0368E0"/>
<path d="M209.956 124.972C205.289 125.02 200.726 123.577 196.92 120.848C193.115 118.12 190.262 114.246 188.77 109.781C188.451 108.809 188.201 107.815 188.023 106.806C187.169 105.94 186.414 104.98 185.774 103.943L178.525 92.2086C175.966 92.3252 173.404 92.0771 170.913 91.4715C167.558 95.4229 162.644 98.0328 156.984 98.8511C153.488 99.3953 149.96 99.6903 146.423 99.7339C146.006 99.7339 145.601 99.7194 145.196 99.6834C143.006 99.5132 140.86 98.9757 138.845 98.0931C134.812 99.6451 129.904 100.432 124.249 100.432C120.087 100.471 116.01 99.2364 112.558 96.8902C105.006 101.089 96.03 103.217 89.8612 104.461C89.8612 104.461 89.5699 104.522 89.5107 104.533C83.2137 105.651 79.7587 106.256 78.3081 106.496L77.5234 106.63C76.5912 106.778 75.6512 106.87 74.7084 106.906C74.2861 106.917 72.2708 106.999 68.5693 107.152C67.7421 107.181 66.9975 107.198 66.2886 107.198C60.0772 107.198 55.564 106.047 51.7729 103.479C51.0473 103.736 50.3045 103.965 49.5565 104.162C49.3549 104.215 49.1544 104.262 48.9533 104.308L48.7166 104.36C44.1649 105.292 37.6289 105.798 28.1533 105.951H26.5447C23.062 105.995 19.5895 105.563 16.2211 104.67C13.1926 103.856 10.3973 102.331 8.06328 100.22C6.06313 98.4101 4.42872 96.2268 3.25018 93.7902C2.10517 91.4466 1.35939 88.9249 1.04414 86.3311C0.884427 84.9531 0.768385 83.6957 0.699446 82.5984C0.686233 82.469 0.674737 82.3003 0.670141 82.1344C0.528816 78.8929 0.456434 75.7604 0.456434 72.8426V71.874C0.439773 70.9153 0.431152 69.8853 0.431152 68.8807C0.431152 63.411 0.554672 58.4411 0.798257 54.1174C1.0855 48.8813 1.52901 45.1526 2.1937 42.3832C2.9462 39.0211 4.5412 35.9105 6.82594 33.3491C9.11068 30.7877 12.0086 28.8615 15.2421 27.755C17.166 26.9881 19.185 26.4913 21.2427 26.2784C21.3076 26.2726 21.8258 26.2361 21.8258 26.2361C22.587 26.1781 23.7394 26.1433 27.6063 26.1433H28.4106C32.042 26.1839 36.6201 26.2964 42.4087 26.486C45.1134 19.4329 50.5992 13.69 58.3284 9.83658C64.297 6.78554 70.6785 4.63935 77.2671 3.46724C77.2671 3.46724 77.3051 3.45971 81.2961 2.85073C84.1444 2.4111 87.5919 2.08225 91.8322 1.84736C92.6451 1.80792 93.4132 1.78125 94.1549 1.78125C99.8653 1.78125 104.914 3.01718 109.161 5.45309C110.912 6.46062 112.458 7.79391 113.717 9.38245C116.376 12.7119 118.397 16.5124 119.677 20.5894C121.383 20.2564 123.117 20.0913 124.854 20.0964C126.226 20.0964 128.268 20.202 133.018 20.9872C135.778 21.42 138.424 22.4107 140.796 23.8999C144.528 21.5674 148.9 20.4992 153.275 20.8511C157.649 21.203 161.799 22.9566 165.117 25.8562C172.451 20.6021 180.834 17.2052 188.835 16.2616C190.633 16.0496 192.443 15.9415 194.254 15.938C203.32 15.938 216.163 18.8605 226.418 32.5996C234.254 27.4902 243.398 24.8063 252.726 24.8783C253.715 24.8783 254.71 24.9073 255.689 24.9642C256.381 24.5125 257.107 24.1165 257.861 23.7798C259.804 22.9157 261.898 22.4502 264.02 22.4104C266.143 22.3705 268.252 22.7572 270.226 23.5479C272.976 24.6519 275.626 25.9956 278.146 27.5636C282.159 25.8167 287.368 24.9647 294.359 24.1823C299.502 23.5688 304.674 23.2373 309.852 23.1894C311.188 23.1894 312.495 23.2225 313.737 23.2874C318.581 23.5184 323.259 25.137 327.225 27.9539C328.695 27.2292 330.22 26.6245 331.787 26.1456C336.651 24.5902 341.716 23.7682 346.818 23.7062C346.943 23.7062 347.898 23.7149 349.694 23.7398C351.935 23.7665 354.47 23.9376 357.45 24.2618C362.996 24.865 367.695 26.7029 371.415 29.7235C372.992 31.005 374.312 32.5801 375.301 34.3633C377.223 37.7775 378.424 41.5562 378.829 45.4618C378.944 46.6623 378.997 47.7237 378.997 48.7247C378.994 51.103 378.699 53.4716 378.116 55.7761C377.946 56.4178 377.743 57.0503 377.508 57.6709C378.469 59.572 379.209 61.5792 379.712 63.6522C380.215 66.2203 380.455 68.8336 380.43 71.4512V71.91C380.43 76.0632 379.492 80.7036 377.476 86.5156C371.826 102.825 351.212 103.58 344.439 103.829C344.388 103.829 344.011 103.833 344.011 103.833C340.423 103.891 337.482 103.922 336.16 103.922H335.582C334.739 103.92 333.898 103.866 333.061 103.761C333.061 103.761 332.581 103.703 331.919 103.62L328.864 103.244C325.475 102.825 321.175 102.002 317.328 99.3882C314.283 102.768 309.998 104.88 304.57 105.672C300.83 106.214 299.699 106.35 299.035 106.415L297.139 106.603C296.44 106.676 295.738 106.712 295.035 106.711C292.114 106.702 289.227 106.069 286.565 104.854C283.903 103.638 281.525 101.868 279.589 99.6597C272.447 104.932 263.716 107.711 254.257 107.711C247.359 107.674 240.539 106.25 234.192 103.522C233.741 107.315 232.353 110.932 230.157 114.043C227.86 117.368 224.832 120.113 221.309 122.06C217.822 123.965 213.921 124.965 209.956 124.972ZM179.192 89.6428C179.404 89.6428 179.612 89.6973 179.798 89.8012C179.983 89.9052 180.139 90.055 180.252 90.2367L187.892 102.607C188.496 103.585 189.219 104.481 190.046 105.275C190.246 105.466 190.377 105.718 190.42 105.992C190.579 107.01 190.82 108.013 191.141 108.99C192.469 112.951 195.004 116.386 198.383 118.804C201.762 121.221 205.813 122.497 209.954 122.449C213.505 122.444 216.999 121.549 220.123 119.843C223.303 118.081 226.037 115.6 228.111 112.594C230.393 109.382 231.684 105.562 231.823 101.612C231.829 101.403 231.886 101.199 231.989 101.018C232.092 100.837 232.238 100.684 232.414 100.574C232.589 100.464 232.79 100.4 232.996 100.387C233.203 100.375 233.409 100.414 233.597 100.502C240.068 103.548 247.114 105.147 254.254 105.192C263.581 105.192 272.143 102.339 279.015 96.9395C279.275 96.7352 279.604 96.6427 279.93 96.6821C280.257 96.7216 280.556 96.8897 280.76 97.1501C282.458 99.3356 284.625 101.105 287.097 102.324C289.569 103.544 292.282 104.182 295.033 104.192C295.65 104.193 296.267 104.161 296.881 104.097L298.787 103.908C299.423 103.845 300.52 103.713 304.21 103.178C309.46 102.412 313.474 100.302 316.139 96.9047C316.343 96.6445 316.64 96.4759 316.966 96.4355C317.292 96.3951 317.621 96.4862 317.881 96.689C321.481 99.4903 325.801 100.327 329.162 100.743L332.218 101.119L333.341 101.257C334.083 101.351 334.83 101.4 335.578 101.402H336.156C337.465 101.402 340.392 101.369 343.984 101.313H344.347C350.695 101.081 370.027 100.371 375.112 85.6874C377.033 80.1509 377.927 75.7755 377.927 71.9169V71.4819C377.953 69.043 377.733 66.6077 377.271 64.2136C376.76 62.1564 376.004 60.169 375.02 58.295C374.939 58.132 374.894 57.9534 374.888 57.7713C374.882 57.5893 374.915 57.408 374.985 57.24C375.268 56.5578 375.506 55.8569 375.695 55.1422C376.224 53.0463 376.492 50.8922 376.494 48.7294C376.494 47.8113 376.444 46.8259 376.338 45.717C375.968 42.1578 374.873 38.7144 373.121 35.6033C372.287 34.0986 371.175 32.7697 369.844 31.689C366.505 28.9776 362.243 27.3223 357.18 26.7714C354.283 26.4553 351.824 26.2888 349.663 26.2627C347.882 26.2378 346.942 26.2297 346.819 26.2297C341.963 26.2914 337.143 27.0765 332.514 28.5594C330.845 29.0686 329.227 29.7347 327.681 30.5488C327.469 30.6611 327.231 30.71 326.993 30.6894C326.755 30.6688 326.528 30.5798 326.339 30.4328C322.66 27.6137 318.215 25.9995 313.601 25.8074C312.408 25.7448 311.145 25.7135 309.852 25.7135C304.766 25.7615 299.686 26.0877 294.634 26.6908C287.525 27.4865 282.36 28.3396 278.579 30.1335C278.388 30.2246 278.177 30.2652 277.966 30.2515C277.755 30.2378 277.551 30.1703 277.373 30.0552C274.816 28.4147 272.112 27.0208 269.296 25.8921C267.632 25.2259 265.854 24.9001 264.064 24.9337C262.275 24.9672 260.51 25.3595 258.871 26.0876C258.125 26.4218 257.411 26.8246 256.738 27.291C256.507 27.4517 256.228 27.529 255.948 27.5103C254.889 27.4395 253.804 27.4036 252.726 27.4036C243.492 27.3235 234.456 30.1005 226.833 35.3609C226.563 35.549 226.231 35.6229 225.908 35.5665C225.586 35.5101 225.297 35.3279 225.106 35.0593C215.357 21.3422 202.947 18.4626 194.256 18.4626C192.54 18.4646 190.825 18.5657 189.121 18.7653C181.243 19.6933 172.948 23.15 165.764 28.4933C165.527 28.67 165.235 28.7562 164.941 28.7367C164.646 28.7172 164.368 28.5932 164.156 28.3866C161.233 25.5578 157.455 23.8004 153.426 23.3957C149.397 22.991 145.35 23.9623 141.932 26.1543L141.459 26.4605C141.253 26.5943 141.012 26.6637 140.767 26.6601C140.521 26.6565 140.283 26.58 140.08 26.4402C137.842 24.9038 135.292 23.8911 132.617 23.4759C128.04 22.722 126.125 22.617 124.853 22.617C122.918 22.6072 120.988 22.8361 119.108 23.2985C118.792 23.3782 118.457 23.3298 118.175 23.1635C117.894 22.9972 117.688 22.7263 117.602 22.4088C116.45 18.2291 114.464 14.3316 111.764 10.9565C110.702 9.6169 109.398 8.49259 107.921 7.64309C104.059 5.42699 99.4247 4.30241 94.1526 4.30241C93.4489 4.30241 92.7198 4.32794 91.9575 4.36448C87.8085 4.59647 84.4397 4.91545 81.6695 5.34289C81.6695 5.34289 77.8382 5.92751 77.6693 5.95477C71.3255 7.08687 65.1814 9.15602 59.4349 12.0956C51.8838 15.8597 46.8421 21.2743 44.451 28.1865C44.3614 28.4389 44.1954 28.6563 43.9764 28.808C43.7575 28.9597 43.4968 29.0379 43.2314 29.0315L42.7109 29.0159C36.7546 28.8193 32.0759 28.7039 28.3986 28.6621H27.6052C23.8394 28.6621 22.7008 28.694 22.0068 28.7485L21.4805 28.7856C19.638 28.9802 17.8307 29.4291 16.109 30.1196C13.2633 31.0886 10.7122 32.7801 8.70083 35.0316C6.68949 37.2832 5.28551 40.0191 4.6238 42.9766C3.99588 45.594 3.57305 49.1789 3.29385 54.2589C3.05313 58.5403 2.93134 63.4597 2.93134 68.8813C2.93134 69.8719 2.93996 70.8875 2.95605 71.8531V72.8432C2.95605 75.7239 3.02785 78.8169 3.16861 82.0422C3.17263 82.1709 3.17952 82.2829 3.19101 82.3977C3.26052 83.4927 3.37255 84.7054 3.52766 86.0435C3.81146 88.357 4.47897 90.6059 5.5022 92.6958C6.53861 94.836 7.97516 96.7536 9.73275 98.3431C11.7772 100.191 14.2252 101.525 16.8771 102.236C20.0323 103.071 23.2845 103.472 26.5458 103.43H28.1349C37.4342 103.279 43.8242 102.792 48.2249 101.888L48.4058 101.848C48.5724 101.81 48.7505 101.77 48.928 101.723C49.8039 101.493 50.6669 101.216 51.5132 100.892C51.7064 100.818 51.9146 100.794 52.1194 100.821C52.3242 100.848 52.5192 100.926 52.6869 101.048C56.139 103.558 60.3351 104.677 66.292 104.677C66.974 104.677 67.6909 104.66 68.4791 104.633C72.1955 104.479 74.2241 104.397 74.6262 104.387C75.4609 104.355 76.2931 104.273 77.1183 104.142L77.8968 104.009C79.3439 103.77 82.7897 103.167 89.0775 102.05L89.3562 101.992C95.5607 100.741 104.638 98.5861 112.012 94.307C112.223 94.1843 112.465 94.1266 112.708 94.141C112.951 94.1555 113.185 94.2414 113.38 94.3882C116.529 96.7196 120.342 97.9558 124.247 97.911C129.816 97.911 134.581 97.1193 138.406 95.5586C138.565 95.4939 138.735 95.4628 138.906 95.4671C139.077 95.4714 139.245 95.511 139.4 95.5835C141.289 96.4668 143.318 97.0041 145.393 97.1703C145.747 97.2017 146.079 97.2133 146.422 97.2133C149.839 97.1691 153.25 96.8826 156.628 96.3561C161.949 95.5864 166.509 93.0717 169.468 89.2745C169.619 89.0803 169.823 88.9352 170.055 88.8573C170.287 88.7794 170.537 88.7723 170.773 88.8367C173.482 89.5803 176.295 89.8548 179.095 89.6486C179.128 89.6447 179.16 89.6428 179.192 89.6428Z" fill="url(#paint0_linear_7552_8401)"/>
<mask id="mask0_7552_8401" style="mask-type:luminance" maskUnits="userSpaceOnUse" x="1" y="0" width="379" height="117">
<path d="M379.173 66.8888V67.2589C379.173 70.8663 378.315 75.0451 376.457 80.4186C371.91 93.5841 354.269 94.2424 347.63 94.4865H347.389C343.091 94.5538 340.467 94.5787 339.368 94.5787H338.777C338.133 94.576 337.491 94.534 336.853 94.4529C336.619 94.4274 335.187 94.2424 332.563 93.9228C328.973 93.4774 324.434 92.5436 321.144 89.1803C320.29 88.2962 319.561 87.2973 318.978 86.212C317.995 90.4249 314.639 95.2092 306.301 96.4289C302.661 96.9584 301.495 97.1016 300.895 97.1602L298.955 97.3534C298.418 97.4106 297.879 97.4387 297.339 97.4375C294.064 97.4375 286.952 96.328 282.646 87.4984C275.85 94.5115 266.396 98.4634 255.66 98.4634C247.228 98.3992 238.961 96.0968 231.688 91.7873C230.316 90.9811 229 90.082 227.749 89.0962C227.815 89.2058 227.882 89.3149 227.94 89.4326C230.889 95.1506 230.372 101.827 226.574 107.292C224.72 110.007 222.264 112.247 219.403 113.837C216.636 115.359 213.535 116.156 210.383 116.157C206.755 116.202 203.205 115.085 200.244 112.967C197.282 110.849 195.062 107.839 193.9 104.368C193.468 103.035 193.2 101.654 193.1 100.256C191.975 99.4253 191.019 98.3831 190.285 97.1863L181.056 82.2026C179.726 82.4665 178.373 82.5988 177.017 82.5975C174.012 82.5809 171.038 81.9844 168.254 80.8402C165.972 85.4058 161.441 88.5678 155.469 89.4337C152.153 89.9538 148.805 90.2376 145.449 90.2829C145.175 90.2829 144.908 90.2747 144.641 90.2492C142.244 90.0591 139.927 89.2891 137.887 88.0041C134.471 89.7951 129.624 90.9979 122.786 90.9979C120.644 91.0396 118.518 90.6236 116.547 89.7773C114.576 88.931 112.805 87.6735 111.35 86.0873C104.286 91.0565 94.5912 93.6131 86.5701 95.2359C86.4954 95.2527 86.4121 95.2695 86.3369 95.2863C80.1984 96.3796 76.4752 97.0355 74.951 97.2878L74.118 97.4305C73.3925 97.5434 72.6611 97.6135 71.9275 97.6404C71.5862 97.6493 69.4957 97.7334 65.6558 97.8927C64.9147 97.9183 64.2149 97.9351 63.5485 97.9351C58.0765 97.9351 54.2946 96.9427 51.2877 94.7313C50.6873 94.2857 50.1221 93.7937 49.597 93.2599C48.1587 94.0086 46.6417 94.5923 45.0746 94.9998C44.8827 95.0503 44.6914 95.092 44.5081 95.1344C40.2104 96.0171 33.8467 96.5048 24.4848 96.6562H22.9274C19.854 96.6993 16.789 96.3232 13.8153 95.538C11.5325 94.9256 9.42595 93.7758 7.66828 92.1829C6.14717 90.8025 4.90542 89.1376 4.01164 87.2803C3.11021 85.44 2.52176 83.4598 2.27092 81.4225C2.12098 80.1274 2.00437 78.8915 1.93773 77.7901C1.92789 77.7147 1.92233 77.6388 1.92106 77.5628C1.77916 74.334 1.70448 71.1894 1.70448 68.2123V67.22C1.68782 66.176 1.6792 65.1518 1.6792 64.1513C1.6792 58.761 1.7941 53.7749 2.04573 49.3265C2.32091 44.298 2.7288 40.7834 3.32857 38.2773C3.88511 35.7153 5.09116 33.3431 6.82863 31.393C8.5661 29.443 10.7754 27.9818 13.2403 27.1527C14.7862 26.5217 16.4125 26.114 18.0712 25.9417L18.4544 25.9168C19.0955 25.8663 20.2117 25.8327 24.0097 25.8327H24.8347C28.5246 25.8744 33.2722 25.9922 39.344 26.194C40.7015 26.2277 41.9591 26.2949 43.1357 26.3958C44.2933 20.737 47.858 13.5308 57.8283 8.5441C63.4409 5.66056 69.4443 3.62905 75.6444 2.51522C75.8277 2.48158 77.1766 2.27973 79.7003 1.89289C82.524 1.45558 85.8807 1.14473 89.9539 0.917376C90.6536 0.883738 91.3528 0.859375 92.0278 0.859375C96.9167 0.859375 101.162 1.88477 104.671 3.9031C105.862 4.59234 106.914 5.50241 107.77 6.5855C110.306 9.76447 112.166 13.4366 113.234 17.3731C113.55 18.576 113.792 19.7278 113.975 20.8124C114.025 21.1656 114.066 21.5188 114.108 21.872C116.966 20.3339 120.166 19.5636 123.404 19.635C124.503 19.635 126.352 19.7278 130.866 20.476C134.093 20.959 137.083 22.467 139.404 24.7812C140.329 24.1676 141.337 23.5062 142.427 22.7971C145.897 20.5601 150.104 19.8057 154.125 20.6997C158.145 21.5937 161.649 24.0629 163.867 27.5645C171.213 21.1656 180.55 16.7189 189.429 15.6662C191.057 15.4738 192.695 15.3756 194.335 15.3722C203.83 15.3722 216.54 18.9628 225.927 34.8972C226.95 33.9413 228.035 33.0564 229.176 32.2484C236.498 27.1492 245.201 24.4564 254.097 24.5376C255.649 24.5357 257.2 24.6143 258.744 24.7731C260.245 23.419 262.09 22.515 264.073 22.1629C266.055 21.8108 268.096 22.0246 269.964 22.7803C273.444 24.1711 276.74 25.9928 279.776 28.2036C283.223 25.7822 288.565 24.7644 297.25 23.7894C302.307 23.1828 307.392 22.8536 312.484 22.8035C313.809 22.8035 315.049 22.8371 316.174 22.8963C321.257 23.0936 326.074 25.2409 329.642 28.9002C331.74 27.4453 334.05 26.3299 336.489 25.5943C340.945 24.1587 345.588 23.3965 350.265 23.3324C350.39 23.3324 351.34 23.3405 353.13 23.366C355.204 23.391 357.628 23.551 360.541 23.8706C365.164 24.3746 369.012 25.8634 371.986 28.2848C373.054 29.1572 373.947 30.2275 374.617 31.4382C376.223 34.2917 377.226 37.4495 377.566 40.7132C377.658 41.6882 377.708 42.6132 377.708 43.4878C377.705 45.4701 377.459 47.4443 376.975 49.3653C376.657 50.5654 376.175 51.7147 375.542 52.7797C375.667 52.9815 375.775 53.1857 375.892 53.3933C377.07 55.4706 377.972 57.6956 378.574 60.0108C378.998 62.2779 379.199 64.5818 379.173 66.8888Z" fill="white"/>
</mask>
<g mask="url(#mask0_7552_8401)">
<path d="M379.174 0.859375H1.6792V1.74036H379.174V0.859375Z" fill="#0057B5"/>
<path d="M379.174 1.73438H1.6792V2.61536H379.174V1.73438Z" fill="#0056B4"/>
<path d="M379.174 2.625H1.6792V3.50599H379.174V2.625Z" fill="#0056B3"/>
<path d="M379.174 3.5H1.6792V4.38099H379.174V3.5Z" fill="#0055B2"/>
<path d="M379.174 4.39062H1.6792V5.27161H379.174V4.39062Z" fill="#0055B1"/>
<path d="M379.174 5.26562H1.6792V6.14661H379.174V5.26562Z" fill="#0054B0"/>
<path d="M379.174 6.14062H1.6792V7.02161H379.174V6.14062Z" fill="#0054AF"/>
<path d="M379.174 7.01562H1.6792V7.89661H379.174V7.01562Z" fill="#0053AE"/>
<path d="M379.174 7.90625H1.6792V8.78724H379.174V7.90625Z" fill="#0053AD"/>
<path d="M379.174 8.78125H1.6792V9.66224H379.174V8.78125Z" fill="#0052AC"/>
<path d="M379.174 9.67188H1.6792V10.5529H379.174V9.67188Z" fill="#0052AB"/>
<path d="M379.174 10.5625H1.6792V11.4435H379.174V10.5625Z" fill="#0051AA"/>
<path d="M379.174 11.4375H1.6792V12.3185H379.174V11.4375Z" fill="#0051A9"/>
<path d="M379.174 12.3125H1.6792V13.1935H379.174V12.3125Z" fill="#0050A8"/>
<path d="M379.174 13.1875H1.6792V14.0685H379.174V13.1875Z" fill="#0050A7"/>
<path d="M379.174 14.0781H1.6792V14.9591H379.174V14.0781Z" fill="#004FA6"/>
<path d="M379.174 14.9375H1.6792V15.8185H379.174V14.9375Z" fill="#004FA5"/>
<path d="M379.174 15.8438H1.6792V16.7247H379.174V15.8438Z" fill="#004EA4"/>
<path d="M379.174 16.7188H1.6792V17.5997H379.174V16.7188Z" fill="#004EA3"/>
<path d="M379.174 17.5938H1.6792V18.4747H379.174V17.5938Z" fill="#004DA2"/>
<path d="M379.174 18.4688H1.6792V19.3497H379.174V18.4688Z" fill="#004DA1"/>
<path d="M379.174 19.3594H1.6792V20.2404H379.174V19.3594Z" fill="#004CA0"/>
<path d="M379.174 20.2344H1.6792V21.1154H379.174V20.2344Z" fill="#014B9F"/>
<path d="M379.174 21.125H1.6792V22.006H379.174V21.125Z" fill="#014B9E"/>
<path d="M379.174 22.0156H1.6792V22.8966H379.174V22.0156Z" fill="#014A9D"/>
<path d="M379.174 22.8906H1.6792V23.7716H379.174V22.8906Z" fill="#014A9C"/>
<path d="M379.174 23.7656H1.6792V24.6466H379.174V23.7656Z" fill="#01499B"/>
<path d="M379.174 24.6406H1.6792V25.5216H379.174V24.6406Z" fill="#01499A"/>
<path d="M379.174 25.5312H1.6792V26.4122H379.174V25.5312Z" fill="#014899"/>
<path d="M379.174 26.4219H1.6792V27.3029H379.174V26.4219Z" fill="#014898"/>
<path d="M379.174 27.2969H1.6792V28.1779H379.174V27.2969Z" fill="#014797"/>
<path d="M379.174 28.1719H1.6792V29.0529H379.174V28.1719Z" fill="#014796"/>
<path d="M379.174 29.0625H1.6792V29.9435H379.174V29.0625Z" fill="#014695"/>
<path d="M379.174 29.9219H1.6792V30.8029H379.174V29.9219Z" fill="#014694"/>
<path d="M379.174 30.8125H1.6792V31.6935H379.174V30.8125Z" fill="#014593"/>
<path d="M379.174 31.6875H1.6792V32.5685H379.174V31.6875Z" fill="#014592"/>
<path d="M379.174 32.5781H1.6792V33.4591H379.174V32.5781Z" fill="#014491"/>
<path d="M379.174 33.4688H1.6792V34.3497H379.174V33.4688Z" fill="#014490"/>
<path d="M379.174 34.3438H1.6792V35.2247H379.174V34.3438Z" fill="#01438F"/>
<path d="M379.174 35.2188H1.6792V36.0997H379.174V35.2188Z" fill="#01438E"/>
<path d="M379.174 36.0938H1.6792V36.9747H379.174V36.0938Z" fill="#01428D"/>
<path d="M379.174 36.9844H1.6792V37.8654H379.174V36.9844Z" fill="#01428C"/>
<path d="M379.174 37.875H1.6792V38.756H379.174V37.875Z" fill="#01418B"/>
<path d="M379.174 38.75H1.6792V39.631H379.174V38.75Z" fill="#01418A"/>
<path d="M379.174 39.625H1.6792V40.506H379.174V39.625Z" fill="#014088"/>
<path d="M379.174 40.5156H1.6792V41.3966H379.174V40.5156Z" fill="#013F87"/>
<path d="M379.174 41.3906H1.6792V42.2716H379.174V41.3906Z" fill="#013F86"/>
<path d="M379.174 42.2656H1.6792V43.1466H379.174V42.2656Z" fill="#013E85"/>
<path d="M379.174 43.1406H1.6792V44.0216H379.174V43.1406Z" fill="#013E84"/>
<path d="M379.174 44.0312H1.6792V44.9122H379.174V44.0312Z" fill="#013D83"/>
<path d="M379.174 44.9062H1.6792V45.7872H379.174V44.9062Z" fill="#013D82"/>
<path d="M379.174 45.7969H1.6792V46.6779H379.174V45.7969Z" fill="#013C81"/>
<path d="M379.174 46.6719H1.6792V47.5529H379.174V46.6719Z" fill="#013C80"/>
<path d="M379.174 47.5469H1.6792V48.4279H379.174V47.5469Z" fill="#013B7F"/>
<path d="M379.174 48.4375H1.6792V49.3185H379.174V48.4375Z" fill="#013B7E"/>
<path d="M379.174 49.3281H1.6792V50.2091H379.174V49.3281Z" fill="#013A7D"/>
<path d="M379.174 50.2031H1.6792V51.0841H379.174V50.2031Z" fill="#013A7C"/>
<path d="M379.174 51.0781H1.6792V51.9591H379.174V51.0781Z" fill="#01397B"/>
<path d="M379.174 51.9531H1.6792V52.8341H379.174V51.9531Z" fill="#01397A"/>
<path d="M379.174 52.8438H1.6792V53.7247H379.174V52.8438Z" fill="#013879"/>
<path d="M379.174 53.7188H1.6792V54.5997H379.174V53.7188Z" fill="#013878"/>
<path d="M379.174 54.5938H1.6792V55.4747H379.174V54.5938Z" fill="#013777"/>
<path d="M379.174 55.4844H1.6792V56.3654H379.174V55.4844Z" fill="#013776"/>
<path d="M379.174 56.375H1.6792V57.256H379.174V56.375Z" fill="#013675"/>
<path d="M379.174 57.25H1.6792V58.131H379.174V57.25Z" fill="#013674"/>
<path d="M379.174 58.125H1.6792V59.006H379.174V58.125Z" fill="#023573"/>
<path d="M379.174 59H1.6792V59.881H379.174V59Z" fill="#023472"/>
<path d="M379.174 59.8906H1.6792V60.7716H379.174V59.8906Z" fill="#023471"/>
<path d="M379.174 60.7812H1.6792V61.6622H379.174V60.7812Z" fill="#023370"/>
<path d="M379.174 61.6562H1.6792V62.5372H379.174V61.6562Z" fill="#02336F"/>
<path d="M379.174 62.5312H1.6792V63.4122H379.174V62.5312Z" fill="#02326E"/>
<path d="M379.174 63.4062H1.6792V64.2872H379.174V63.4062Z" fill="#02326D"/>
<path d="M379.174 64.2969H1.6792V65.1779H379.174V64.2969Z" fill="#02316C"/>
<path d="M379.174 65.1719H1.6792V66.0529H379.174V65.1719Z" fill="#02316B"/>
<path d="M379.174 66.0469H1.6792V66.9279H379.174V66.0469Z" fill="#02306A"/>
<path d="M379.174 66.9375H1.6792V67.8185H379.174V66.9375Z" fill="#023069"/>
<path d="M379.174 67.8125H1.6792V68.6935H379.174V67.8125Z" fill="#022F68"/>
<path d="M379.174 68.7031H1.6792V69.5841H379.174V68.7031Z" fill="#022F67"/>
<path d="M379.174 69.5781H1.6792V70.4591H379.174V69.5781Z" fill="#022E66"/>
<path d="M379.174 70.4688H1.6792V71.3497H379.174V70.4688Z" fill="#022E65"/>
<path d="M379.174 71.3438H1.6792V72.2247H379.174V71.3438Z" fill="#022D64"/>
<path d="M379.174 72.2344H1.6792V73.1154H379.174V72.2344Z" fill="#022D63"/>
<path d="M379.174 73.1094H1.6792V73.9904H379.174V73.1094Z" fill="#022C62"/>
<path d="M379.174 73.9844H1.6792V74.8654H379.174V73.9844Z" fill="#022C61"/>
<path d="M379.174 74.8594H1.6792V75.7404H379.174V74.8594Z" fill="#022B60"/>
<path d="M379.174 75.75H1.6792V76.631H379.174V75.75Z" fill="#022B5F"/>
<path d="M379.174 76.625H1.6792V77.506H379.174V76.625Z" fill="#022A5E"/>
<path d="M379.174 77.5312H1.6792V116.179H379.174V77.5312Z" fill="#022A5E"/>
</g>
<path d="M210.386 116.979C206.582 117.024 202.862 115.851 199.758 113.629C196.655 111.407 194.328 108.25 193.111 104.611C192.697 103.337 192.427 102.019 192.307 100.683C191.227 99.8294 190.305 98.7902 189.583 97.6128L180.653 83.1133C176.612 83.7654 172.473 83.3373 168.647 81.8716C166.111 86.3693 161.398 89.4049 155.592 90.247C152.237 90.7727 148.849 91.0593 145.454 91.1048C145.153 91.1048 144.861 91.095 144.569 91.0677C142.2 90.8831 139.904 90.1574 137.854 88.9456C133.997 90.8531 128.933 91.8199 122.791 91.8199C120.657 91.8523 118.537 91.4574 116.555 90.6581C114.573 89.8589 112.768 88.6711 111.243 87.1633C103.775 92.1807 93.7248 94.6282 86.7407 96.0416L86.5207 96.0886C80.076 97.2375 76.5613 97.8552 75.0929 98.0982L74.2645 98.2403C73.5044 98.3594 72.738 98.4333 71.9694 98.4618C71.6138 98.4705 69.5278 98.5546 65.6965 98.7141C64.9399 98.7402 64.2304 98.7571 63.5554 98.7571C57.9018 98.7571 53.9688 97.7189 50.8016 95.3932C50.3279 95.0433 49.8754 94.665 49.4464 94.2605C48.1132 94.9073 46.7207 95.4216 45.2888 95.7962C45.1297 95.838 44.97 95.8746 44.8154 95.9123L44.7005 95.9389C40.3091 96.8414 33.9001 97.3309 24.5043 97.4823H22.9336C19.7857 97.5253 16.6465 97.139 13.601 96.3339C11.1938 95.6878 8.97235 94.4754 7.11843 92.796C5.51767 91.3421 4.21063 89.5893 3.26934 87.6342C2.32738 85.7067 1.71256 83.6333 1.45049 81.5004C1.29136 80.1264 1.17762 78.8904 1.11327 77.8244C1.10165 77.7321 1.0955 77.6392 1.09488 77.5461C0.951834 74.2947 0.8783 71.1367 0.8783 68.1951V67.2027C0.86164 66.1692 0.853027 65.1392 0.853027 64.1341C0.853027 58.6127 0.977117 53.6092 1.2207 49.2617C1.49876 44.181 1.91354 40.62 2.52537 38.0628C3.11946 35.3646 4.39436 32.8673 6.22635 30.8131C8.05834 28.759 10.3852 27.2178 12.9811 26.3392C14.5852 25.6871 16.2722 25.266 17.9924 25.0881L18.4089 25.0597C19.0799 25.0075 20.2576 24.9745 24.0177 24.9745H24.8427C28.5665 25.0168 33.3181 25.1351 39.3773 25.3364C40.4596 25.3631 41.5029 25.4123 42.4836 25.4831C43.7716 20.0313 47.4478 12.7816 57.4629 7.77345C63.1498 4.85272 69.2325 2.79542 75.5146 1.66802C75.6145 1.65004 76.1798 1.56303 77.1984 1.40818L79.5802 1.04395C82.3481 0.61535 85.7273 0.293473 89.9119 0.0580014C90.6317 0.0237827 91.3447 0 92.0323 0C97.0586 0 101.451 1.06136 105.088 3.1545C106.371 3.89549 107.504 4.87537 108.425 6.04222C111.033 9.31132 112.945 13.0878 114.042 17.1361C114.339 18.2635 114.589 19.4165 114.786 20.5672C117.496 19.3417 120.439 18.7305 123.408 18.7768C124.553 18.7768 126.453 18.8737 131.006 19.6288C134.174 20.1121 137.131 21.5259 139.508 23.6939C140.28 23.1835 141.105 22.6422 141.985 22.0699C145.36 19.9009 149.404 19.053 153.355 19.686C157.306 20.3189 160.891 22.3891 163.435 25.5063C163.652 25.7673 163.855 26.0364 164.042 26.3003C171.53 20.0075 180.702 15.8346 189.34 14.8121C191 14.6159 192.671 14.5158 194.342 14.5122C203.556 14.5122 216.472 17.8471 226.126 33.5756C226.95 32.8527 227.811 32.1736 228.705 31.541C236.167 26.342 245.038 23.5958 254.104 23.6776C255.59 23.6776 257.059 23.7467 258.479 23.8818C260.091 22.5166 262.041 21.6188 264.119 21.2839C266.197 20.949 268.326 21.1896 270.28 21.98C273.643 23.3272 276.839 25.067 279.802 27.1639C283.436 24.848 288.78 23.876 297.166 22.9347C302.253 22.326 307.369 21.9968 312.491 21.9487C313.78 21.9487 315.036 21.98 316.225 22.0421C321.276 22.249 326.081 24.2957 329.752 27.8036C331.766 26.4907 333.952 25.4702 336.247 24.7721C340.782 23.3124 345.505 22.5379 350.265 22.4736C350.391 22.4736 351.343 22.4823 353.141 22.5072C355.29 22.5328 357.742 22.6998 360.633 23.0165C365.409 23.5384 369.406 25.0841 372.51 27.6128C373.663 28.5523 374.626 29.7062 375.348 31.012C377.007 33.9649 378.045 37.2316 378.397 40.6078C378.495 41.6622 378.542 42.596 378.542 43.47C378.54 45.5218 378.285 47.5654 377.785 49.554C377.489 50.6709 377.06 51.7474 376.506 52.7595C376.525 52.7932 376.545 52.8279 376.564 52.8622L376.621 52.9654C377.839 55.1134 378.77 57.4146 379.389 59.8092C379.825 62.1325 380.033 64.4937 380.009 66.8582V67.2439C380.009 70.9593 379.131 75.2291 377.247 80.6809C372.509 94.3985 354.459 95.0643 347.661 95.312H347.392C343.709 95.37 340.705 95.4048 339.371 95.4048H338.781C338.104 95.4018 337.428 95.3577 336.757 95.2726C336.672 95.2633 336.373 95.2261 335.871 95.1629C335.155 95.0736 334.02 94.9336 332.467 94.743C328.738 94.279 324.017 93.2931 320.555 89.7552C320.079 89.2657 319.64 88.7407 319.242 88.1846C317.928 91.61 314.642 96.0434 306.425 97.2451C302.673 97.7908 301.567 97.923 300.98 97.981L299.041 98.1742C298.477 98.234 297.91 98.2634 297.343 98.2623C294.345 98.2623 287.06 97.3228 282.435 88.8812C275.489 95.6014 266.03 99.2883 255.664 99.2883C247.085 99.2245 238.674 96.883 231.275 92.4991C230.764 92.199 230.257 91.8839 229.755 91.5537C230.648 94.2604 230.887 97.1431 230.453 99.9619C230.019 102.781 228.924 105.454 227.26 107.759C225.327 110.576 222.775 112.903 219.803 114.559C216.912 116.142 213.675 116.974 210.386 116.979ZM181.06 81.3409C181.201 81.3408 181.341 81.3772 181.464 81.4468C181.588 81.5163 181.692 81.6166 181.767 81.7382L190.995 96.7219C191.672 97.8267 192.554 98.7888 193.593 99.5551C193.69 99.6268 193.771 99.7191 193.83 99.8256C193.889 99.932 193.924 100.05 193.933 100.172C194.027 101.502 194.282 102.816 194.694 104.084C195.801 107.386 197.916 110.25 200.735 112.264C203.554 114.278 206.933 115.339 210.386 115.295C213.4 115.3 216.366 114.536 219.009 113.076C221.754 111.545 224.112 109.394 225.896 106.79C229.516 101.582 230.005 95.2302 227.206 89.801C227.152 89.6931 227.097 89.6056 227.044 89.518C226.943 89.3502 226.904 89.1521 226.932 88.958C226.961 88.764 227.056 88.5861 227.201 88.4554C227.346 88.3246 227.531 88.2491 227.726 88.2419C227.92 88.2347 228.11 88.2963 228.264 88.416C229.486 89.3781 230.771 90.2558 232.11 91.0434C239.255 95.2791 247.379 97.5424 255.664 97.6058C265.988 97.6058 275.361 93.8017 282.056 86.8942C282.148 86.7974 282.263 86.7247 282.39 86.6825C282.516 86.6403 282.651 86.6297 282.783 86.6517C282.914 86.6729 283.039 86.7256 283.146 86.8055C283.253 86.8853 283.34 86.9899 283.398 87.1105C287.417 95.3497 293.861 96.5798 297.344 96.5798C297.853 96.5808 298.363 96.5545 298.87 96.5009L300.818 96.3072C301.354 96.2539 302.447 96.1239 306.187 95.5799C314.971 94.2953 317.466 89.0262 318.171 86.0027C318.21 85.8372 318.297 85.6874 318.422 85.573C318.546 85.4586 318.702 85.3851 318.869 85.362C319.036 85.339 319.206 85.3675 319.356 85.4439C319.507 85.5203 319.631 85.6409 319.712 85.7899C320.258 86.8085 320.941 87.7454 321.743 88.5738C324.842 91.7422 329.211 92.6418 332.669 93.0709C334.222 93.2608 335.358 93.4012 336.076 93.492C336.562 93.55 336.851 93.5895 336.945 93.5993C337.555 93.677 338.169 93.7174 338.783 93.7205H339.375C340.701 93.7205 343.695 93.6863 347.382 93.6283H347.637C354.091 93.3905 371.315 92.7583 375.678 80.1246C377.5 74.8561 378.347 70.7627 378.347 67.2416V66.8797C378.372 64.6319 378.178 62.387 377.768 60.1774C377.18 57.9358 376.305 55.7816 375.163 53.7698L375.112 53.6794C375.024 53.5193 374.94 53.3639 374.842 53.2078C374.761 53.0763 374.717 52.9245 374.715 52.7694C374.714 52.6142 374.755 52.4617 374.834 52.3286C375.427 51.3309 375.879 50.2542 376.177 49.13C376.642 47.28 376.879 45.3788 376.881 43.47C376.881 42.6493 376.837 41.7678 376.744 40.7737C376.414 37.6278 375.446 34.5844 373.899 31.8333C373.28 30.7138 372.455 29.7248 371.466 28.9201C368.617 26.6001 364.912 25.1746 360.458 24.6862C357.619 24.3753 355.22 24.2118 353.125 24.1869C351.34 24.1613 350.394 24.1526 350.269 24.1526C345.674 24.2167 341.114 24.9666 336.736 26.378C334.38 27.0884 332.149 28.1645 330.121 29.5679C329.96 29.682 329.763 29.7342 329.567 29.7152C329.371 29.6961 329.188 29.6071 329.05 29.4641C325.623 25.9606 321.004 23.9045 316.13 23.713C314.975 23.655 313.748 23.622 312.488 23.622C307.427 23.6714 302.372 23.998 297.346 24.6004C289.044 25.533 283.586 26.53 280.255 28.8696C280.113 28.9693 279.944 29.0219 279.771 29.0202C279.598 29.0184 279.43 28.9623 279.29 28.8597C276.309 26.6908 273.074 24.9027 269.658 23.5361C267.933 22.8386 266.05 22.6413 264.22 22.9666C262.391 23.2918 260.687 24.1267 259.303 25.377C259.216 25.4545 259.115 25.5131 259.004 25.5489C258.894 25.5847 258.778 25.5971 258.663 25.5852C257.147 25.4295 255.624 25.3521 254.101 25.3532C245.376 25.2717 236.84 27.9115 229.658 32.912C228.548 33.6978 227.492 34.5585 226.498 35.4883C226.406 35.5729 226.298 35.6361 226.179 35.6734C226.061 35.7107 225.936 35.7212 225.813 35.7041C225.69 35.6861 225.573 35.6406 225.47 35.571C225.366 35.5014 225.28 35.4093 225.216 35.3016C215.909 19.5035 203.288 16.1872 194.34 16.1872C192.732 16.1912 191.126 16.288 189.53 16.4772C180.938 17.4939 171.784 21.7591 164.415 28.1771C164.326 28.2554 164.22 28.3135 164.107 28.3475C163.993 28.3814 163.873 28.3905 163.756 28.374C163.638 28.3575 163.526 28.3159 163.426 28.252C163.325 28.188 163.24 28.1032 163.175 28.0031C161.073 24.6913 157.757 22.3558 153.952 21.5087C150.148 20.6615 146.166 21.3719 142.879 23.4839C141.794 24.1869 140.788 24.8492 139.866 25.4617C139.706 25.5678 139.515 25.615 139.324 25.5953C139.133 25.5757 138.955 25.4904 138.82 25.3538C136.62 23.1687 133.791 21.7439 130.739 21.2841C126.301 20.5481 124.49 20.4535 123.408 20.4535C120.312 20.3879 117.251 21.122 114.515 22.5861C114.395 22.6527 114.262 22.6885 114.125 22.6905C113.988 22.6925 113.854 22.6606 113.732 22.5976C113.611 22.5345 113.506 22.4424 113.429 22.3291C113.351 22.2159 113.302 22.085 113.286 21.9481C113.245 21.6001 113.204 21.2522 113.155 20.9082C112.968 19.8016 112.724 18.6689 112.434 17.5664C111.395 13.7416 109.587 10.1738 107.123 7.08559C106.333 6.0846 105.362 5.2442 104.261 4.60909C100.408 2.39183 95.5948 1.46908 89.9969 1.73413C85.8738 1.96612 82.5469 2.28047 79.8318 2.70095L77.4466 3.06519C76.4585 3.2154 75.9098 3.29718 75.7983 3.3198C69.6741 4.41947 63.7444 6.42639 58.2011 9.27559C48.3382 14.2054 45.0102 21.3879 43.9537 26.5427C43.9109 26.7435 43.7976 26.9218 43.6346 27.0446C43.4716 27.1675 43.2701 27.2265 43.0673 27.2109C41.9131 27.1117 40.6544 27.0444 39.3285 27.0114C33.2722 26.8107 28.532 26.6924 24.83 26.6506H24.0108C20.3168 26.6506 19.1443 26.6831 18.5198 26.7318L18.1291 26.7579C16.5584 26.9239 15.0186 27.3114 13.5545 27.9092C11.2174 28.6966 9.12197 30.0813 7.47207 31.9286C5.82217 33.7759 4.67396 36.0228 4.13912 38.4509C3.55142 40.9094 3.15042 44.3724 2.87869 49.3498C2.63625 53.6666 2.51331 58.6388 2.51331 64.1283C2.51331 65.1241 2.52192 66.1454 2.53858 67.1836V68.1893C2.53858 71.106 2.61097 74.2396 2.75402 77.5026C2.75473 77.5569 2.75857 77.6111 2.76551 77.665C2.83272 78.7495 2.94361 79.9559 3.09929 81.302C3.34086 83.2489 3.90401 85.1411 4.76532 86.9C5.61231 88.6574 6.78784 90.2329 8.2272 91.5398C9.88792 93.0431 11.8774 94.1284 14.033 94.7071C16.9361 95.4727 19.9283 95.8391 22.9284 95.7962H24.4859C33.7611 95.646 40.0753 95.1682 44.3432 94.2912L44.4449 94.268C44.5822 94.2361 44.7235 94.2042 44.8654 94.1671C46.3723 93.7743 47.8312 93.2131 49.2149 92.4939C49.3719 92.4114 49.5509 92.3816 49.7259 92.4089C49.9008 92.4362 50.0625 92.5193 50.1875 92.6458C50.6819 93.149 51.2144 93.6127 51.78 94.0326C54.6404 96.1367 58.2718 97.0745 63.5496 97.0745C64.2068 97.0745 64.8974 97.0577 65.6281 97.0328C69.4715 96.8731 71.5651 96.789 71.909 96.7805C72.6057 96.7549 73.3003 96.6881 73.9893 96.5804L74.8125 96.4389C76.2792 96.1959 79.7876 95.5793 86.1932 94.4385L86.3954 94.3944C93.4307 92.9712 103.608 90.49 110.875 85.3775C111.04 85.2606 111.242 85.2085 111.443 85.2309C111.644 85.2533 111.83 85.3487 111.966 85.4993C113.347 86.9953 115.024 88.1814 116.888 88.9808C118.753 89.7801 120.763 90.1748 122.788 90.1392C128.885 90.1392 133.837 89.1642 137.505 87.2393C137.633 87.1713 137.777 87.1386 137.922 87.1445C138.067 87.1504 138.208 87.1947 138.331 87.2729C140.257 88.4814 142.441 89.2078 144.701 89.3916C144.962 89.4159 145.203 89.4235 145.451 89.4235C148.767 89.3777 152.076 89.0966 155.353 88.5825C160.978 87.7664 165.297 84.8758 167.513 80.4419C167.607 80.2544 167.768 80.1093 167.962 80.0349C168.157 79.9606 168.373 79.9624 168.566 80.04C172.464 81.6733 176.747 82.1314 180.898 81.3589C180.951 81.3474 181.005 81.3414 181.06 81.3409Z" fill="#007AFF"/>
<path d="M23.2747 87.3303C21.0078 87.3649 18.7464 87.0955 16.5497 86.5294C15.6564 86.2944 14.8318 85.847 14.1448 85.2244C13.507 84.65 12.9867 83.9551 12.6132 83.1788C12.1601 82.2744 11.8596 81.3 11.7239 80.2958C11.586 79.119 11.4844 78.042 11.4235 77.1059C11.2839 73.9798 11.2144 70.9726 11.2144 68.1319V67.0351C11.1948 66.0492 11.1851 65.0504 11.1851 64.0714C11.1851 58.8516 11.3046 54.0378 11.5401 49.7639C11.7831 45.3619 12.1238 42.2874 12.5822 40.3636C12.7914 39.2804 13.2928 38.2766 14.0312 37.4628C14.7696 36.649 15.7163 36.0568 16.7668 35.7516C17.5862 35.389 18.4567 35.1581 19.3469 35.0673C20.0363 35.0203 21.6563 35 24.361 35H25.0659C28.6565 35.0389 33.4696 35.1589 39.3903 35.3561C41.2977 35.3896 43.2014 35.5391 45.091 35.8038C47.0443 36.1043 48.149 36.5253 48.7953 37.2132C49.4529 37.9607 49.9382 38.8461 50.216 39.8057C50.3415 40.245 50.4027 40.7005 50.3976 41.1576C50.3876 41.5995 50.3477 42.0401 50.2781 42.4765C50.1447 43.2621 49.8879 44.0212 49.5174 44.7251C49.0449 45.7139 48.3566 46.5819 47.5044 47.2638C46.6521 47.9457 45.6579 48.4239 44.5964 48.6626L44.4694 48.6933L44.339 48.7032C42.7879 48.825 41.1155 48.8864 39.365 48.8864C37.5134 48.8864 35.5027 48.9937 33.3846 49.2048C33.3577 49.318 33.3406 49.4332 33.3334 49.5493C33.3168 49.7987 33.3087 50.047 33.3087 50.2871C33.3002 50.6107 33.3315 50.934 33.4018 51.2498C40.4135 51.3711 43.9673 53.4097 43.9673 57.3124V57.6679C43.9673 60.1038 42.9493 64.1816 36.1352 64.1816L34.1636 64.2315C34.2212 64.9143 34.3743 65.5855 34.6186 66.2249L40.9604 65.9106L41.0787 65.9216C45.022 66.2991 49.7231 68.5001 49.7231 76.8449C49.7231 77.5032 49.6932 78.187 49.6341 78.8794C49.6105 81.3548 48.446 84.5633 43.1044 85.9714L43.0176 85.9923C39.3409 86.7515 33.3432 87.1888 24.6822 87.3297H23.2752L23.2747 87.3303Z" fill="#F7C800"/>
<path d="M63.894 88.5761C60.5349 88.5761 58.3565 88.1232 57.0386 87.1517C55.4639 85.9917 54.4333 83.7037 53.7944 79.9524L53.683 79.2594C53.1888 76.1939 52.866 73.1027 52.7161 70.0005C52.5277 66.2777 54.4396 63.8951 58.0956 63.2931C59.4339 63.1499 60.7788 63.0792 62.1246 63.0814C64.2151 63.0234 68.4928 62.741 74.8386 62.2416C76.1749 62.1331 77.3664 61.9934 78.3815 61.8269C79.5984 61.692 80.7836 61.3483 81.8859 60.8108C80.8714 60.5156 78.524 60.0568 73.1795 59.6677C65.8582 59.1352 60.7228 57.5971 57.4792 54.9646C54.4035 52.5309 52.3672 49.0009 51.7883 45.0992L51.678 44.4142L51.6734 44.322C51.3945 39.2414 51.5973 34.1456 52.2789 29.1039C53.0171 23.8215 56.3682 19.6561 62.2389 16.7231C67.032 14.246 72.161 12.4965 77.46 11.5311C77.6301 11.5041 78.9478 11.3021 81.4131 10.9251C83.9099 10.544 87.0638 10.2476 90.7888 10.0447C91.3327 10.0153 91.8608 10.0004 92.3733 10C95.6479 10 98.3698 10.6136 100.474 11.8235L100.752 11.9835L100.951 12.237C102.703 14.4276 103.988 16.9596 104.727 19.6746C104.962 20.5608 105.144 21.4076 105.271 22.1952C105.54 23.8579 105.599 25.5482 105.449 27.2259C105.244 29.5041 103.381 31.2237 99.9049 32.3379C98.1365 32.9302 96.3283 33.3938 94.4943 33.7252C93.6459 33.8479 92.7919 33.9269 91.9355 33.9618C90.8865 34.0191 88.8742 34.1482 85.8987 34.3493C85.4398 34.3733 84.9825 34.4217 84.5286 34.4943C82.7684 34.7842 81.5016 35.3921 80.7634 36.2997L80.7341 36.3368C81.3453 36.7365 83.6249 37.712 91.6529 38.2276C100.476 38.7942 105.561 40.3462 107.652 43.1127C109.497 45.5544 110.646 47.3692 111.163 48.6625C111.914 50.9117 112.468 53.2234 112.816 55.5707L112.862 55.8555C113.427 59.3533 113.159 64.1724 112.042 70.5869C110.827 77.5751 102.018 82.6372 85.1146 86.0619C79.0703 87.1442 75.2821 87.8117 73.8195 88.0524L72.9807 88.1904C72.6308 88.2442 72.278 88.2761 71.9242 88.2861C71.5819 88.2997 69.4838 88.384 65.6301 88.539C65.0196 88.5634 64.4409 88.5757 63.894 88.5761Z" fill="#0368E0"/>
<path d="M123.129 81.6625C119.902 81.6625 117.629 79.8066 116.731 76.4323C115.91 73.1314 115.351 69.7699 115.058 66.3795C114.665 62.4206 114.391 55.3454 114.242 45.3541C114.242 38.6612 115.039 34.2556 116.678 31.8603C118.035 29.8304 120.416 28.7969 123.744 28.7969C125.752 28.9011 127.751 29.1416 129.727 29.5166C131.838 29.86 135.388 31.343 135.388 37.4159C135.367 37.8235 135.419 38.2314 135.54 38.6206C135.89 38.5481 137.189 38.091 140.794 35.2567C142.56 33.8647 145.519 31.9096 147.688 30.5165C149.014 29.6651 150.604 29.336 152.155 29.5921C153.706 29.8481 155.11 30.6713 156.098 31.9049C157.087 33.1384 157.591 34.6959 157.515 36.2807C157.439 37.8654 156.788 39.3666 155.686 40.4979L153.59 42.6485L153.466 42.7813C152.858 43.3735 152.163 44.0074 151.369 44.6953C153.603 45.8563 155.462 47.6378 156.727 49.8298C159.005 53.605 160.322 57.8913 160.56 62.3057C160.911 66.9769 161.082 70.6435 161.082 73.5156C161.082 75.6534 160.228 79.3641 154.514 80.1917C151.626 80.6453 148.711 80.8972 145.789 80.9457L145.665 80.9416C143.282 80.7618 140.29 79.128 139.569 72.3643C139.114 68.0324 138.294 64.4667 137.132 61.7629C137.024 61.5158 136.917 61.2772 136.81 61.0472C136.911 62.6624 137.035 64.5491 137.181 66.6422L137.186 66.7112L137.093 74.9023C137.097 81.6625 126.584 81.6625 123.129 81.6625Z" fill="#0368E0"/>
<path d="M297.691 88.0922C293.798 88.0922 291.096 84.9603 289.661 78.7801C288.343 73.1067 287.174 66.7658 286.186 59.9354C285.19 53.0458 284.652 49.157 284.543 48.0458C284.536 47.9791 284.514 47.6543 284.478 47.0668C284.444 46.539 284.408 46.0704 284.368 45.6638L283.885 40.7537C283.713 39.2536 284.009 37.7367 284.73 36.4137C285.165 35.625 285.892 34.3067 298.608 32.8811C303.33 32.3141 308.078 32.0043 312.832 31.9531C313.981 31.9531 315.048 31.981 316.006 32.0355C320.336 32.2843 323.537 34.3554 325.52 38.2001C327.193 41.2922 328.268 44.6777 328.687 48.1757C328.988 51.5274 329.021 54.8981 328.787 58.2552C328.519 62.4618 325.178 66.2363 318.857 69.4737C315.843 71.0056 312.734 72.338 309.55 73.4622L310.497 83.0957C310.71 85.2735 308.977 86.6463 305.344 87.1776C302.714 87.5615 301.074 87.7848 300.329 87.8608L298.402 88.0539C298.166 88.0787 297.928 88.0915 297.691 88.0922ZM306.768 56.8719C306.865 56.8865 306.962 56.8933 307.06 56.8922C307.175 56.8922 307.29 56.8853 307.419 56.8725C307.633 56.851 308.55 56.6707 311.315 55.2555C313.014 54.3641 313.154 53.2946 313.06 52.3667C313.056 52.3319 313.012 52.0233 312.693 50.4829C312.437 49.2458 312.282 48.3491 312.223 47.7442C312.211 47.5902 312.168 47.4403 312.096 47.3034C311.654 47.14 311.193 47.0353 310.723 46.992C310.026 46.8947 309.323 46.8432 308.619 46.8377C308.286 46.8377 307.971 46.8524 307.674 46.8818C306.97 47.0103 306.33 47.3788 305.862 47.9257C305.699 48.1689 305.587 48.4429 305.533 48.7311C305.478 49.0194 305.482 49.3158 305.544 49.6025C305.579 49.9505 305.675 50.7265 305.939 52.4328C306.147 53.7847 306.427 55.2764 306.77 56.8702L306.768 56.8719Z" fill="#0368E0"/>
<path d="M339.129 85.2502C338.864 85.2472 338.599 85.2279 338.336 85.1923C338.101 85.1625 336.664 84.9848 334.023 84.6593C330.884 84.2713 329.032 83.6362 328.019 82.5997C326.975 81.5303 326.477 79.7422 326.453 76.9739V76.4844C326.453 74.3214 326.574 72.1601 326.815 70.0107C327.125 67.199 328.916 65.5843 331.73 65.5843C332.68 65.6355 333.628 65.7395 334.567 65.8958C336 66.0912 338.933 66.3766 343.29 66.7454C344.194 66.8208 345.008 66.8614 345.706 66.8614C345.84 66.8614 345.966 66.8614 346.086 66.8574C345.201 66.5825 343.976 66.2432 342.282 65.8366C337.248 64.6279 333.833 62.9529 331.842 60.7148C329.928 58.6179 328.883 55.8612 328.919 53.0104V52.4977L328.929 52.4049C329.301 48.8804 330.007 45.4 331.035 42.0111C332.172 38.3212 335.028 35.7473 339.521 34.3525C343.107 33.1874 346.843 32.5631 350.609 32.5C350.728 32.5 351.649 32.5099 353.373 32.5296C355.125 32.5499 357.323 32.7036 359.904 32.9837C362.751 33.2951 364.995 34.106 366.572 35.3929L366.822 35.5965L366.978 35.879C367.966 37.629 368.585 39.5662 368.797 41.5691C368.862 42.2187 368.894 42.8335 368.894 43.4001C368.893 44.6065 368.743 45.8079 368.445 46.9763C367.999 48.7272 366.397 49.8182 363.683 50.2242C362.388 50.4335 361.081 50.5484 359.77 50.5681C359.16 50.5565 358.551 50.5136 357.945 50.4393C357.226 50.362 355.844 50.2243 353.798 50.0264C353.5 49.9937 353.2 49.9766 352.899 49.9754C352.275 49.9543 351.652 50.0592 351.068 50.2839C351.882 50.7084 353.656 51.4085 357.455 52.2854C363.56 53.6977 366.959 55.408 368.154 57.6682C368.934 59.0226 369.548 60.4676 369.983 61.9716C370.258 63.6222 370.385 65.2945 370.362 66.9682V67.1752C370.362 69.6825 369.64 72.9906 368.156 77.2894C366.481 82.1381 359.772 84.7132 347.646 85.1592C343.368 85.2207 340.737 85.2502 339.718 85.2502H339.129Z" fill="#0368E0"/>
<path d="M187.405 74.3422L189.731 73.8463C189.854 73.8196 202.291 71.034 205.106 61.767C205.739 59.8607 205.909 57.8283 205.6 55.8419C205.291 53.8555 204.512 51.9734 203.331 50.3548C201.32 47.6115 198.316 45.9069 195.489 45.9069C195.23 45.9069 194.972 45.9214 194.716 45.9504C188.443 46.665 182.048 49.6356 180.971 54.0603C182.914 54.8264 186.321 56.5867 187.631 59.8549C188.633 62.3551 188.23 65.1327 186.431 68.1178C185.51 69.7116 184.184 71.0283 182.59 71.9318C180.996 72.8353 179.192 73.293 177.364 73.2576C169.953 73.2576 161.135 66.2932 159.822 55.9255C159.16 50.7016 160.976 45.1454 165.071 39.8601C171.218 31.9237 181.573 25.8571 190.839 24.7632C192.113 24.6111 193.395 24.5336 194.678 24.5312C206.421 24.5312 215.1 31.2404 221.212 45.0428C227.514 59.2749 223.344 70.7103 208.459 79.9627C210.929 84.4947 211.561 85.36 211.591 85.3977L212.997 87.0796L210.982 87.9612L199.192 93.4786L187.405 74.3422Z" fill="#F7C800"/>
<path d="M210.732 106.832C207.076 106.832 204.021 104.703 202.95 101.408C201.335 96.4361 205.133 92.6135 207.446 91.2331C209.044 90.0072 210.989 89.329 212.996 89.2972C214.469 89.2846 215.917 89.6819 217.181 90.4455C218.445 91.209 219.476 92.3093 220.162 93.6255C221.518 96.2604 221.249 99.2774 219.423 101.903C217.245 105.035 214.08 106.833 210.732 106.833L210.732 106.832Z" fill="#F7C800"/>
<path d="M256.009 89.1222C249.187 89.0555 242.502 87.1801 236.625 83.6837C229.226 79.3669 224.762 71.7042 224.376 62.6606C223.978 53.323 227.961 44.5392 234.775 39.7312C240.564 35.7318 247.43 33.6229 254.445 33.6895C257.245 33.6586 260.038 33.9846 262.757 34.6598L264.475 35.1499L255.774 59.6134L281.427 47.1897L282.014 49.0224C282.192 49.5804 286.335 62.8068 281.947 72.6386C277.393 83.1083 267.936 89.1222 256.009 89.1222Z" fill="#0368E0"/>
<path d="M265.303 31.0156L266.735 31.5956C277.593 35.9808 281.162 43.5043 281.309 43.8227L281.941 45.192L255.476 57.7834L265.303 31.0156Z" fill="#F7C800"/>
<path d="M47.244 36.719C47.7195 37.2684 48.0702 37.9161 48.2717 38.6167C48.3531 38.9059 48.3918 39.2057 48.3866 39.5064C48.3756 39.8686 48.3414 40.2297 48.2844 40.5875C48.1745 41.1939 47.9713 41.7792 47.6823 42.3222C47.3167 43.0897 46.7832 43.7633 46.1219 44.2922C45.4607 44.8211 44.6891 45.1914 43.8654 45.3752C42.3575 45.4935 40.7426 45.5528 39.0207 45.5532C36.8725 45.5614 34.7261 45.68 32.5898 45.9088C31.8261 46.0673 31.4048 46.6898 31.326 47.7763C31.3058 48.0727 31.2966 48.3592 31.2966 48.6358C31.2966 50.1971 31.6988 51.0766 32.5031 51.2741C38.806 51.2939 41.9575 52.7562 41.9575 55.6611V56.0166C41.9575 59.2378 39.9023 60.8484 35.792 60.8484L33.4137 60.9064C32.5519 61.143 32.1212 61.6372 32.1216 62.3889C32.3955 64.9794 32.9923 66.2735 33.9123 66.2712L40.5764 65.9453C45.3332 66.4 47.7116 69.483 47.7116 75.1942C47.7116 75.8272 47.6823 76.4795 47.6237 77.1511C47.6237 79.9176 45.8619 81.7652 42.3384 82.6939C38.7953 83.4251 32.7859 83.8597 24.3103 83.9977H22.9315C20.8136 84.0334 18.7005 83.7843 16.6477 83.2571C16.0042 83.091 15.4098 82.7706 14.915 82.3233C14.438 81.8951 14.049 81.3764 13.7701 80.7968C13.4002 80.0619 13.1521 79.2708 13.0359 78.4548C12.8987 77.2887 12.8009 76.2513 12.7423 75.3427C12.6052 72.2587 12.5366 69.3041 12.5366 66.4789V65.3821C12.5171 64.3741 12.5073 63.3862 12.5073 62.4184C12.5073 57.1986 12.6247 52.4604 12.8595 48.2037C13.0943 43.9471 13.4271 40.9138 13.858 39.1039C14.0031 38.29 14.3761 37.5352 14.9329 36.9288C15.4897 36.3224 16.207 35.8897 16.9998 35.682C17.6871 35.3651 18.4214 35.1649 19.1731 35.0893C19.7599 35.0506 21.3746 35.0312 24.0173 35.0312H24.7222C28.3223 35.0699 33.0789 35.1884 38.992 35.3868C40.834 35.4179 42.6725 35.5614 44.4973 35.8165C45.9757 36.0431 46.8912 36.3439 47.244 36.719Z" fill="#F9A700"/>
<path d="M99.0627 29.1306C97.3717 29.6988 95.6424 30.1433 93.8882 30.4605C93.3562 30.5482 92.563 30.6207 91.5087 30.6779C90.4543 30.7352 88.4346 30.8647 85.4495 31.0665C84.9384 31.094 84.4291 31.1486 83.9236 31.2301C81.7406 31.5897 80.1452 32.3891 79.1376 33.6283C78.9561 33.816 78.8173 34.0413 78.7306 34.2886C78.6439 34.5358 78.6114 34.7991 78.6355 35.0603C78.9001 36.6997 83.0914 37.78 91.2094 38.3012C99.3273 38.8224 104.254 40.2314 105.99 42.5281C107.726 44.826 108.823 46.5466 109.281 47.6899C109.985 49.8337 110.506 52.0344 110.839 54.268L110.88 54.5215C111.409 57.801 111.137 62.525 110.064 68.6933C108.99 74.8615 100.452 79.5669 84.4505 82.8094C78.416 83.8893 74.6709 84.5491 73.2151 84.7888L72.3752 84.9269C72.0936 84.9692 71.8096 84.9942 71.525 85.0017C71.1803 85.0152 69.0813 85.0995 65.228 85.2546C61.3747 85.4096 58.8599 85.0547 57.6837 84.1897C56.5087 83.324 55.647 81.2821 55.0985 78.064L54.9888 77.3854C54.5044 74.3822 54.1883 71.3537 54.042 68.3145C53.8977 65.4649 55.2255 63.8096 58.0256 63.3487C58.4469 63.2799 59.7157 63.2165 61.8322 63.1585C63.9486 63.1005 68.2146 62.8192 74.6301 62.3147C76.02 62.2014 77.2469 62.0573 78.3109 61.8825C82.0642 61.2639 83.8193 60.206 83.5761 58.7089L83.5491 58.5396C83.3986 57.607 79.8693 56.8893 72.9612 56.3867C66.0531 55.884 61.1276 54.4385 58.1847 52.0502C55.4286 49.8772 53.6061 46.7171 53.0947 43.2246L52.9988 42.6313C52.7231 37.6583 52.9213 32.6699 53.5905 27.7351C54.2508 23.0126 57.2672 19.3096 62.6399 16.6262C67.2831 14.22 72.254 12.5219 77.3905 11.5874C77.5583 11.5595 78.8695 11.3585 81.3241 10.9842C83.7787 10.6099 86.8509 10.3219 90.5406 10.12C94.23 9.91935 97.1523 10.4396 99.3074 11.6807C100.92 13.6901 102.103 16.015 102.781 18.5088C103.002 19.3428 103.172 20.1272 103.29 20.8618C103.537 22.3851 103.592 23.9338 103.453 25.4709C103.314 27.0171 101.85 28.237 99.0627 29.1306Z" fill="#F5F6FF"/>
<path d="M159.078 71.8956C159.078 74.7462 157.362 76.4107 153.939 76.9072C151.13 77.3504 148.294 77.5977 145.451 77.6472C142.885 77.4539 141.363 75.0938 140.887 70.5668C140.41 66.0399 139.555 62.3429 138.322 59.4759C137.663 57.8189 136.762 56.2712 135.648 54.8848C135.273 54.4892 134.998 54.2793 134.823 54.2625H134.798C134.64 54.2625 134.557 54.4138 134.557 54.7079V54.792C134.624 56.558 134.823 60.0054 135.181 65.1434L135.089 73.266C135.089 76.6628 130.989 78.3614 122.787 78.3617C120.297 78.3617 118.708 77.033 117.998 74.3761C117.201 71.1649 116.658 67.8947 116.374 64.5965C115.991 60.73 115.722 53.7675 115.566 43.7092C115.566 37.4616 116.279 33.291 117.706 31.1973C118.748 29.6418 120.647 28.8625 123.404 28.8594C125.321 28.9649 127.23 29.1974 129.118 29.5554C131.967 30.0193 133.382 32.0945 133.382 35.7942C133.382 37.7284 133.974 38.6941 135.148 38.6941C136.206 38.6941 138.316 37.4496 141.478 34.9608C143.159 33.6355 145.977 31.7709 148.244 30.3128C149.217 29.6861 150.385 29.4404 151.525 29.622C152.666 29.8036 153.702 30.3999 154.437 31.2988C155.182 32.2105 155.567 33.3686 155.515 34.5495C155.464 35.7304 154.982 36.8503 154.161 37.693L153.114 38.7672L152.065 39.8436L151.973 39.9445C150.84 41.0465 149.358 42.3323 147.508 43.8205C150.448 44.0815 152.939 45.8417 154.98 49.1012C157.029 52.3555 158.22 56.2657 158.561 60.8064C158.903 65.347 159.078 69.0531 159.078 71.8956Z" fill="#F5F6FF"/>
<path d="M298.446 32.934C306.131 32.0727 311.847 31.883 315.566 32.0953C317.271 32.1236 318.935 32.6309 320.371 33.5603C321.807 34.4897 322.959 35.8046 323.696 37.3575C325.274 40.2588 326.288 43.4379 326.683 46.7235C326.977 49.9844 327.008 53.2638 326.778 56.5298C326.551 60.1176 323.544 63.3929 317.758 66.3558C312.632 68.8362 309.181 70.245 307.403 70.5821L308.492 81.6435C308.602 82.7648 307.358 83.5151 304.758 83.8944C302.158 84.2737 300.503 84.4993 299.794 84.5712L297.889 84.762C294.569 85.0957 292.252 82.4336 290.938 76.7757C289.624 71.1178 288.475 64.8833 287.491 58.072C286.506 51.2595 285.962 47.3223 285.858 46.2601C285.852 46.2014 285.832 45.8955 285.797 45.3426C285.762 44.7897 285.724 44.3021 285.682 43.8799L285.501 42.0361L285.199 38.9686C285.062 37.8095 285.287 36.6361 285.842 35.6123C286.391 34.6141 292.706 33.5772 298.446 32.934ZM304.818 55.7086C305.009 56.662 305.816 57.068 307.239 56.9265C308.056 56.8445 309.552 56.2477 311.725 55.1361C313.689 54.1053 314.572 52.5869 314.374 50.581C314.355 50.3846 314.224 49.6977 313.98 48.5203C313.737 47.343 313.589 46.489 313.536 45.9585C313.494 45.4549 313.313 44.973 313.016 44.5666C312.721 44.1695 311.916 43.8828 310.6 43.7065C309.463 43.5363 308.311 43.4974 307.166 43.5905C306.073 43.7494 305.071 44.2929 304.337 45.1251C303.991 45.5395 303.741 46.0258 303.604 46.5494C303.467 47.0729 303.446 47.6206 303.543 48.1532C303.595 48.6844 303.731 49.659 303.949 51.0769C304.167 52.4947 304.457 54.0386 304.818 55.7086Z" fill="#F5F6FF"/>
<path d="M363.097 46.9408C361.883 47.1381 360.657 47.2471 359.427 47.2667C359.056 47.2667 358.507 47.2271 357.783 47.1478C357.058 47.0686 355.668 46.9303 353.614 46.7331C353.262 46.6952 352.91 46.6759 352.557 46.6751C351.288 46.5909 350.034 46.9811 349.033 47.7713C348.889 47.879 348.769 48.0169 348.683 48.1756C348.597 48.3343 348.546 48.51 348.533 48.6906C348.533 49.8366 351.269 51.042 356.741 52.3067C362.212 53.5715 365.413 55.0833 366.342 56.8422C367.048 58.0671 367.61 59.3713 368.016 60.728C368.259 62.267 368.372 63.8241 368.353 65.3824V65.5598C368.353 67.8527 367.649 71.0395 366.239 75.1202C364.83 79.2009 358.497 81.4478 347.242 81.8607C343.014 81.9206 340.39 81.9504 339.371 81.95H338.784C338.588 81.9471 338.391 81.9322 338.197 81.9054C337.962 81.8756 336.523 81.6977 333.88 81.3718C331.237 81.0458 329.563 80.5223 328.86 79.8012C328.154 79.0793 327.792 77.5921 327.773 75.3395V74.865C327.773 72.7651 327.891 70.6669 328.125 68.5803C328.341 66.6247 329.427 65.6468 331.384 65.6468C331.678 65.6468 332.55 65.7456 333.998 65.9432C335.447 66.1408 338.383 66.4271 342.806 66.8021C343.764 66.8818 344.615 66.9214 345.361 66.921C347.984 66.921 349.295 66.3973 349.296 65.3499V65.231C349.296 64.5791 346.971 63.6946 342.322 62.5776C337.673 61.4605 334.478 59.9232 332.737 57.9656C331.099 56.1771 330.205 53.8208 330.241 51.3851V50.9705C330.6 47.5525 331.283 44.1772 332.282 40.891C333.251 37.7495 335.713 35.566 339.667 34.3407C343.093 33.2222 346.666 32.623 350.267 32.5625C350.385 32.5625 351.3 32.5724 353.012 32.5921C354.724 32.6118 356.848 32.7599 359.384 33.0364C361.918 33.3144 363.851 33.9962 365.183 35.0819C366.06 36.6313 366.61 38.347 366.798 40.1214C366.857 40.7149 366.886 41.2682 366.886 41.7813C366.886 42.8464 366.753 43.9073 366.49 44.9387C366.225 45.9765 365.094 46.6438 363.097 46.9408Z" fill="#F5F6FF"/>
<path d="M178.81 53.5943C178.81 53.5943 190.128 56.5714 184.67 65.626C178.845 75.2873 162.85 67.6275 161.136 54.0948C159.422 40.5622 176.561 26.4821 190.694 24.8146C204.827 23.1472 213.571 31.0517 219.353 44.1105C225.193 57.2969 222.035 68.2556 205.887 77.7307C209.276 84.0194 209.941 84.8181 209.941 84.8181L199.488 89.7096L189.736 73.8762C189.736 73.8762 203.215 71.0006 206.36 60.6451C209.504 50.2896 201.317 41.8538 194.19 42.6658C187.062 43.4777 178.956 47.1653 178.81 53.5943Z" fill="#F9A700"/>
<path d="M208.022 91.0051C208.022 91.0051 202.547 94.1852 204.193 99.249C205.838 104.313 213.402 105.509 217.719 99.3023C222.036 93.0954 214.596 86.0753 208.022 91.0051Z" fill="#F9A700"/>
<path d="M261.958 34.6411C261.958 34.6411 247.907 30.6323 235.383 39.4729C222.859 48.3135 221.434 71.4414 237.114 80.5934C252.794 89.7455 272.751 87.1669 280.083 70.311C284.257 60.9565 280.083 47.9018 280.083 47.9018L252.488 61.2651L261.958 34.6411Z" fill="#F5F6FF"/>
<path d="M265.864 31.5312L257.853 53.3512L279.633 42.9887C279.633 42.9887 276.295 35.7436 265.864 31.5312Z" fill="#F9A700"/>
<defs>
<linearGradient id="paint0_linear_7552_8401" x1="190.431" y1="1.78125" x2="190.431" y2="124.973" gradientUnits="userSpaceOnUse">
<stop stop-color="#0057B5"/>
<stop offset="0.665" stop-color="#022A5E"/>
</linearGradient>
</defs>
</svg>
