<svg xmlns="http://www.w3.org/2000/svg" width="24" height="24" viewBox="0 0 24 24" fill="none">
<path opacity="0.4" d="M7 3H17C20 3 22 4.5 22 8V11.14C22 11.87 21.25 12.33 20.58 12.04C19.4289 11.5404 18.1579 11.3841 16.92 11.59C14.3 12.02 12.16 14.09 11.63 16.69C11.48 17.45 11.46 18.19 11.56 18.9C11.64 19.49 11.16 20.01 10.57 20.01H7C4 20.01 2 18.51 2 15.01V8.01C2 4.5 4 3 7 3Z" fill="white"/>
<path d="M12.001 11.8719C11.161 11.8719 10.311 11.6119 9.66102 11.0819L6.53102 8.58192C6.38548 8.45554 6.29433 8.27785 6.27661 8.08591C6.25888 7.89396 6.31594 7.70259 6.43589 7.55169C6.55583 7.40079 6.7294 7.30202 6.92039 7.27598C7.11139 7.24994 7.30506 7.29864 7.46102 7.41192L10.591 9.91192C11.351 10.5219 12.641 10.5219 13.401 9.91192L16.531 7.41192C16.851 7.15192 17.331 7.20192 17.581 7.53192C17.841 7.85192 17.791 8.33192 17.461 8.58192L14.331 11.0819C13.691 11.6119 12.841 11.8719 12.001 11.8719ZM18.001 12.9999C15.241 12.9999 13.001 15.2299 13.001 17.9999C13.001 20.7599 15.241 22.9999 18.001 22.9999C20.771 22.9999 23.001 20.7599 23.001 17.9999C23.001 15.2299 20.771 12.9999 18.001 12.9999ZM20.051 17.5499L19.681 17.9099L17.511 20.0899C17.411 20.1799 17.221 20.2799 17.081 20.2999L16.101 20.4399C15.751 20.4899 15.501 20.2399 15.551 19.8899L15.691 18.9099C15.7195 18.7498 15.7922 18.6008 15.901 18.4799L18.081 16.3099L18.441 15.9399C18.681 15.6999 18.951 15.5399 19.231 15.5399C19.471 15.5399 19.741 15.6499 20.041 15.9399C20.701 16.5999 20.491 17.1099 20.051 17.5499Z" fill="white"/>
</svg>